<mxfile host="app.diagrams.net" agent="Mozilla/5.0 (Windows NT 10.0; Win64; x64) AppleWebKit/537.36 (KHTML, like Gecko) Chrome/127.0.0.0 Safari/537.36" version="24.7.6">
  <diagram name="Page-1" id="yVlu_cx1tOWViV9BSWrK">
    <mxGraphModel dx="3764" dy="1166" grid="1" gridSize="10" guides="1" tooltips="1" connect="1" arrows="1" fold="1" page="1" pageScale="1" pageWidth="850" pageHeight="1100" math="0" shadow="0">
      <root>
        <mxCell id="0" />
        <mxCell id="1" parent="0" />
        <mxCell id="KNgxAIFZUdSB5Y39HR3K-3" value="" style="edgeStyle=orthogonalEdgeStyle;rounded=0;orthogonalLoop=1;jettySize=auto;html=1;exitX=0.5;exitY=1;exitDx=0;exitDy=0;strokeColor=#FFFFFF;labelBackgroundColor=none;fontColor=#FFFFFF;" edge="1" parent="1" source="KNgxAIFZUdSB5Y39HR3K-1" target="KNgxAIFZUdSB5Y39HR3K-2">
          <mxGeometry relative="1" as="geometry" />
        </mxCell>
        <mxCell id="KNgxAIFZUdSB5Y39HR3K-11" value="" style="edgeStyle=orthogonalEdgeStyle;rounded=0;orthogonalLoop=1;jettySize=auto;html=1;exitX=0.5;exitY=1;exitDx=0;exitDy=0;strokeColor=#FFFFFF;labelBackgroundColor=none;fontColor=#FFFFFF;" edge="1" parent="1" source="KNgxAIFZUdSB5Y39HR3K-1" target="KNgxAIFZUdSB5Y39HR3K-10">
          <mxGeometry relative="1" as="geometry">
            <Array as="points">
              <mxPoint x="435" y="860" />
              <mxPoint x="-365" y="860" />
            </Array>
          </mxGeometry>
        </mxCell>
        <mxCell id="KNgxAIFZUdSB5Y39HR3K-13" value="" style="edgeStyle=orthogonalEdgeStyle;rounded=0;orthogonalLoop=1;jettySize=auto;html=1;exitX=0.5;exitY=1;exitDx=0;exitDy=0;strokeColor=#FFFFFF;labelBackgroundColor=none;fontColor=#FFFFFF;" edge="1" parent="1" source="KNgxAIFZUdSB5Y39HR3K-1" target="KNgxAIFZUdSB5Y39HR3K-12">
          <mxGeometry relative="1" as="geometry">
            <Array as="points">
              <mxPoint x="435" y="860" />
              <mxPoint x="-85" y="860" />
            </Array>
          </mxGeometry>
        </mxCell>
        <mxCell id="KNgxAIFZUdSB5Y39HR3K-15" value="" style="edgeStyle=orthogonalEdgeStyle;rounded=0;orthogonalLoop=1;jettySize=auto;html=1;exitX=0.5;exitY=1;exitDx=0;exitDy=0;strokeColor=#FFFFFF;labelBackgroundColor=none;fontColor=#FFFFFF;" edge="1" parent="1" source="KNgxAIFZUdSB5Y39HR3K-1" target="KNgxAIFZUdSB5Y39HR3K-14">
          <mxGeometry relative="1" as="geometry">
            <Array as="points">
              <mxPoint x="435" y="860" />
              <mxPoint x="195" y="860" />
            </Array>
          </mxGeometry>
        </mxCell>
        <mxCell id="KNgxAIFZUdSB5Y39HR3K-17" value="" style="edgeStyle=orthogonalEdgeStyle;rounded=0;orthogonalLoop=1;jettySize=auto;html=1;exitX=0.5;exitY=1;exitDx=0;exitDy=0;strokeColor=#FFFFFF;labelBackgroundColor=none;fontColor=#FFFFFF;" edge="1" parent="1" source="KNgxAIFZUdSB5Y39HR3K-1" target="KNgxAIFZUdSB5Y39HR3K-16">
          <mxGeometry relative="1" as="geometry">
            <mxPoint x="430" y="330" as="sourcePoint" />
            <Array as="points">
              <mxPoint x="435" y="790" />
              <mxPoint x="435" y="790" />
            </Array>
          </mxGeometry>
        </mxCell>
        <mxCell id="KNgxAIFZUdSB5Y39HR3K-19" value="" style="edgeStyle=orthogonalEdgeStyle;rounded=0;orthogonalLoop=1;jettySize=auto;html=1;exitX=0.5;exitY=1;exitDx=0;exitDy=0;strokeColor=#FFFFFF;labelBackgroundColor=none;fontColor=#FFFFFF;" edge="1" parent="1" source="KNgxAIFZUdSB5Y39HR3K-1" target="KNgxAIFZUdSB5Y39HR3K-18">
          <mxGeometry relative="1" as="geometry">
            <Array as="points">
              <mxPoint x="435" y="860" />
              <mxPoint x="755" y="860" />
            </Array>
          </mxGeometry>
        </mxCell>
        <mxCell id="KNgxAIFZUdSB5Y39HR3K-21" value="" style="edgeStyle=orthogonalEdgeStyle;rounded=0;orthogonalLoop=1;jettySize=auto;html=1;exitX=0.5;exitY=1;exitDx=0;exitDy=0;strokeColor=#FFFFFF;labelBackgroundColor=none;fontColor=#FFFFFF;" edge="1" parent="1" source="KNgxAIFZUdSB5Y39HR3K-1" target="KNgxAIFZUdSB5Y39HR3K-20">
          <mxGeometry relative="1" as="geometry">
            <Array as="points">
              <mxPoint x="435" y="860" />
              <mxPoint x="1035" y="860" />
            </Array>
          </mxGeometry>
        </mxCell>
        <mxCell id="KNgxAIFZUdSB5Y39HR3K-1" value="&lt;font style=&quot;font-size: 22px;&quot;&gt;KEPALA PUSKESMAS BAYAT&lt;/font&gt;" style="swimlane;whiteSpace=wrap;html=1;startSize=80;strokeColor=#FFFFFF;labelBackgroundColor=none;fontColor=#FFFFFF;fillColor=none;" vertex="1" parent="1">
          <mxGeometry x="320" y="120" width="230" height="180" as="geometry" />
        </mxCell>
        <mxCell id="KNgxAIFZUdSB5Y39HR3K-5" value="" style="edgeStyle=orthogonalEdgeStyle;rounded=0;orthogonalLoop=1;jettySize=auto;html=1;strokeColor=#FFFFFF;labelBackgroundColor=none;fontColor=#FFFFFF;" edge="1" parent="1" source="KNgxAIFZUdSB5Y39HR3K-2" target="KNgxAIFZUdSB5Y39HR3K-4">
          <mxGeometry relative="1" as="geometry" />
        </mxCell>
        <mxCell id="KNgxAIFZUdSB5Y39HR3K-7" value="" style="edgeStyle=orthogonalEdgeStyle;rounded=0;orthogonalLoop=1;jettySize=auto;html=1;exitX=0.5;exitY=1;exitDx=0;exitDy=0;strokeColor=#FFFFFF;labelBackgroundColor=none;fontColor=#FFFFFF;" edge="1" parent="1" source="KNgxAIFZUdSB5Y39HR3K-2" target="KNgxAIFZUdSB5Y39HR3K-6">
          <mxGeometry relative="1" as="geometry">
            <Array as="points">
              <mxPoint x="-85" y="600" />
              <mxPoint x="-365" y="600" />
            </Array>
          </mxGeometry>
        </mxCell>
        <mxCell id="KNgxAIFZUdSB5Y39HR3K-9" value="" style="edgeStyle=orthogonalEdgeStyle;rounded=0;orthogonalLoop=1;jettySize=auto;html=1;exitX=0.5;exitY=1;exitDx=0;exitDy=0;strokeColor=#FFFFFF;labelBackgroundColor=none;fontColor=#FFFFFF;" edge="1" parent="1" source="KNgxAIFZUdSB5Y39HR3K-2" target="KNgxAIFZUdSB5Y39HR3K-8">
          <mxGeometry relative="1" as="geometry">
            <Array as="points">
              <mxPoint x="-85" y="600" />
              <mxPoint x="195" y="600" />
            </Array>
          </mxGeometry>
        </mxCell>
        <mxCell id="KNgxAIFZUdSB5Y39HR3K-2" value="&lt;font style=&quot;font-size: 22px;&quot;&gt;KEPALA TATA USAHA&lt;/font&gt;" style="swimlane;whiteSpace=wrap;html=1;startSize=80;strokeColor=#FFFFFF;labelBackgroundColor=none;fontColor=#FFFFFF;fillColor=none;" vertex="1" parent="1">
          <mxGeometry x="-200" y="380" width="230" height="200" as="geometry" />
        </mxCell>
        <mxCell id="KNgxAIFZUdSB5Y39HR3K-4" value="UMUM DAN KEPEGAWAIAN" style="swimlane;whiteSpace=wrap;html=1;startSize=80;fontSize=21;strokeColor=#FFFFFF;labelBackgroundColor=none;fontColor=#FFFFFF;fillColor=none;" vertex="1" parent="1">
          <mxGeometry x="-200" y="630" width="230" height="200" as="geometry" />
        </mxCell>
        <mxCell id="KNgxAIFZUdSB5Y39HR3K-6" value="DATA DAN INFORMASI" style="swimlane;whiteSpace=wrap;html=1;startSize=80;fontSize=21;strokeColor=#FFFFFF;labelBackgroundColor=none;fontColor=#FFFFFF;fillColor=none;" vertex="1" parent="1">
          <mxGeometry x="-480" y="630" width="230" height="200" as="geometry" />
        </mxCell>
        <mxCell id="KNgxAIFZUdSB5Y39HR3K-8" value="KEUANGAN" style="swimlane;whiteSpace=wrap;html=1;startSize=80;fontSize=21;strokeColor=#FFFFFF;labelBackgroundColor=none;fontColor=#FFFFFF;fillColor=none;" vertex="1" parent="1">
          <mxGeometry x="80" y="630" width="230" height="200" as="geometry" />
        </mxCell>
        <mxCell id="KNgxAIFZUdSB5Y39HR3K-10" value="&lt;font style=&quot;font-size: 22px;&quot;&gt;PENANGGUNG JAWAB UKM ESENSIAL DAN KEPERAWATAN KESEHATAN MASYARAKAT&lt;/font&gt;" style="swimlane;whiteSpace=wrap;html=1;startSize=170;strokeColor=#FFFFFF;labelBackgroundColor=none;fontColor=#FFFFFF;fillColor=none;" vertex="1" parent="1">
          <mxGeometry x="-480" y="950" width="230" height="230" as="geometry" />
        </mxCell>
        <mxCell id="KNgxAIFZUdSB5Y39HR3K-27" value="" style="edgeStyle=orthogonalEdgeStyle;rounded=0;orthogonalLoop=1;jettySize=auto;html=1;strokeColor=#FFFFFF;labelBackgroundColor=none;fontColor=#FFFFFF;" edge="1" parent="KNgxAIFZUdSB5Y39HR3K-10" source="KNgxAIFZUdSB5Y39HR3K-24" target="KNgxAIFZUdSB5Y39HR3K-26">
          <mxGeometry relative="1" as="geometry" />
        </mxCell>
        <mxCell id="KNgxAIFZUdSB5Y39HR3K-24" value="&lt;font style=&quot;font-size: 21px;&quot;&gt;PELAYANAN PROMOSI KESEHATAN&lt;/font&gt;" style="swimlane;whiteSpace=wrap;html=1;startSize=100;strokeColor=#FFFFFF;labelBackgroundColor=none;fontColor=#FFFFFF;fillColor=none;" vertex="1" parent="KNgxAIFZUdSB5Y39HR3K-10">
          <mxGeometry y="280" width="230" height="170" as="geometry" />
        </mxCell>
        <mxCell id="KNgxAIFZUdSB5Y39HR3K-29" value="" style="edgeStyle=orthogonalEdgeStyle;rounded=0;orthogonalLoop=1;jettySize=auto;html=1;strokeColor=#FFFFFF;labelBackgroundColor=none;fontColor=#FFFFFF;" edge="1" parent="KNgxAIFZUdSB5Y39HR3K-10" source="KNgxAIFZUdSB5Y39HR3K-26" target="KNgxAIFZUdSB5Y39HR3K-28">
          <mxGeometry relative="1" as="geometry" />
        </mxCell>
        <mxCell id="KNgxAIFZUdSB5Y39HR3K-26" value="&lt;font style=&quot;font-size: 22px;&quot;&gt;PELAYANAN KESEHATAN LINGKUNGAN&lt;/font&gt;" style="swimlane;whiteSpace=wrap;html=1;startSize=110;strokeColor=#FFFFFF;labelBackgroundColor=none;fontColor=#FFFFFF;fillColor=none;" vertex="1" parent="KNgxAIFZUdSB5Y39HR3K-10">
          <mxGeometry y="490" width="230" height="180" as="geometry" />
        </mxCell>
        <mxCell id="KNgxAIFZUdSB5Y39HR3K-31" value="" style="edgeStyle=orthogonalEdgeStyle;rounded=0;orthogonalLoop=1;jettySize=auto;html=1;strokeColor=#FFFFFF;labelBackgroundColor=none;fontColor=#FFFFFF;" edge="1" parent="KNgxAIFZUdSB5Y39HR3K-10" source="KNgxAIFZUdSB5Y39HR3K-28" target="KNgxAIFZUdSB5Y39HR3K-30">
          <mxGeometry relative="1" as="geometry" />
        </mxCell>
        <mxCell id="KNgxAIFZUdSB5Y39HR3K-28" value="&lt;font style=&quot;font-size: 22px;&quot;&gt;PELAYANAN KESEHATAN KELUARGA&lt;/font&gt;" style="swimlane;whiteSpace=wrap;html=1;startSize=110;strokeColor=#FFFFFF;labelBackgroundColor=none;fontColor=#FFFFFF;fillColor=none;" vertex="1" parent="KNgxAIFZUdSB5Y39HR3K-10">
          <mxGeometry y="710" width="230" height="180" as="geometry" />
        </mxCell>
        <mxCell id="KNgxAIFZUdSB5Y39HR3K-33" value="" style="edgeStyle=orthogonalEdgeStyle;rounded=0;orthogonalLoop=1;jettySize=auto;html=1;strokeColor=#FFFFFF;labelBackgroundColor=none;fontColor=#FFFFFF;" edge="1" parent="KNgxAIFZUdSB5Y39HR3K-10" source="KNgxAIFZUdSB5Y39HR3K-30" target="KNgxAIFZUdSB5Y39HR3K-32">
          <mxGeometry relative="1" as="geometry" />
        </mxCell>
        <mxCell id="KNgxAIFZUdSB5Y39HR3K-30" value="&lt;font style=&quot;font-size: 22px;&quot;&gt;PELAYANAN P2&lt;/font&gt;" style="swimlane;whiteSpace=wrap;html=1;startSize=60;strokeColor=#FFFFFF;labelBackgroundColor=none;fontColor=#FFFFFF;fillColor=none;" vertex="1" parent="KNgxAIFZUdSB5Y39HR3K-10">
          <mxGeometry y="930" width="230" height="120" as="geometry" />
        </mxCell>
        <mxCell id="KNgxAIFZUdSB5Y39HR3K-99" style="edgeStyle=orthogonalEdgeStyle;rounded=0;orthogonalLoop=1;jettySize=auto;html=1;strokeColor=#FFFFFF;" edge="1" parent="KNgxAIFZUdSB5Y39HR3K-10" source="KNgxAIFZUdSB5Y39HR3K-10" target="KNgxAIFZUdSB5Y39HR3K-24">
          <mxGeometry relative="1" as="geometry">
            <mxPoint x="-40" y="1010" as="targetPoint" />
            <mxPoint x="130" y="160" as="sourcePoint" />
          </mxGeometry>
        </mxCell>
        <mxCell id="KNgxAIFZUdSB5Y39HR3K-32" value="&lt;font style=&quot;font-size: 22px;&quot;&gt;PELAYANAN GIZI&lt;/font&gt;" style="swimlane;whiteSpace=wrap;html=1;startSize=80;strokeColor=#FFFFFF;labelBackgroundColor=none;fontColor=#FFFFFF;fillColor=none;" vertex="1" parent="KNgxAIFZUdSB5Y39HR3K-10">
          <mxGeometry y="1100" width="230" height="150" as="geometry" />
        </mxCell>
        <mxCell id="KNgxAIFZUdSB5Y39HR3K-35" value="" style="edgeStyle=orthogonalEdgeStyle;rounded=0;orthogonalLoop=1;jettySize=auto;html=1;strokeColor=#FFFFFF;labelBackgroundColor=none;fontColor=#FFFFFF;" edge="1" parent="1" source="KNgxAIFZUdSB5Y39HR3K-12" target="KNgxAIFZUdSB5Y39HR3K-34">
          <mxGeometry relative="1" as="geometry" />
        </mxCell>
        <mxCell id="KNgxAIFZUdSB5Y39HR3K-12" value="PENANGGUNG JAWAB UKM PENGEMBANGAN" style="swimlane;whiteSpace=wrap;html=1;startSize=90;fontSize=21;strokeColor=#FFFFFF;labelBackgroundColor=none;fontColor=#FFFFFF;fillColor=none;" vertex="1" parent="1">
          <mxGeometry x="-200" y="950" width="230" height="160" as="geometry" />
        </mxCell>
        <mxCell id="KNgxAIFZUdSB5Y39HR3K-52" value="" style="edgeStyle=orthogonalEdgeStyle;rounded=0;orthogonalLoop=1;jettySize=auto;html=1;strokeColor=#FFFFFF;labelBackgroundColor=none;fontColor=#FFFFFF;" edge="1" parent="1" source="KNgxAIFZUdSB5Y39HR3K-14" target="KNgxAIFZUdSB5Y39HR3K-51">
          <mxGeometry relative="1" as="geometry" />
        </mxCell>
        <mxCell id="KNgxAIFZUdSB5Y39HR3K-14" value="PENANGGUNG JAWAB UKP KEFARMASIAN DAN LABORATORIUM" style="swimlane;whiteSpace=wrap;html=1;startSize=120;fontSize=21;strokeColor=#FFFFFF;labelBackgroundColor=none;fontColor=#FFFFFF;fillColor=none;" vertex="1" parent="1">
          <mxGeometry x="80" y="950" width="230" height="200" as="geometry" />
        </mxCell>
        <mxCell id="KNgxAIFZUdSB5Y39HR3K-70" value="" style="edgeStyle=orthogonalEdgeStyle;rounded=0;orthogonalLoop=1;jettySize=auto;html=1;strokeColor=#FFFFFF;labelBackgroundColor=none;fontColor=#FFFFFF;" edge="1" parent="1" source="KNgxAIFZUdSB5Y39HR3K-16" target="KNgxAIFZUdSB5Y39HR3K-69">
          <mxGeometry relative="1" as="geometry" />
        </mxCell>
        <mxCell id="KNgxAIFZUdSB5Y39HR3K-16" value="PENGANGGUNG JAWAB PELAYANAN PUSKESMAS DAN JEJARING MASYARAKAT" style="swimlane;whiteSpace=wrap;html=1;startSize=130;fontSize=21;strokeColor=#FFFFFF;labelBackgroundColor=none;fontColor=#FFFFFF;fillColor=none;" vertex="1" parent="1">
          <mxGeometry x="360" y="950" width="230" height="200" as="geometry" />
        </mxCell>
        <mxCell id="KNgxAIFZUdSB5Y39HR3K-84" value="" style="edgeStyle=orthogonalEdgeStyle;rounded=0;orthogonalLoop=1;jettySize=auto;html=1;strokeColor=#FFFFFF;labelBackgroundColor=none;fontColor=#FFFFFF;" edge="1" parent="1" source="KNgxAIFZUdSB5Y39HR3K-18" target="KNgxAIFZUdSB5Y39HR3K-83">
          <mxGeometry relative="1" as="geometry" />
        </mxCell>
        <mxCell id="KNgxAIFZUdSB5Y39HR3K-18" value="PENANGGUNG JAWAB BANGUNAN PRASARANA DAN PERALATAN" style="swimlane;whiteSpace=wrap;html=1;startSize=110;fontSize=21;strokeColor=#FFFFFF;labelBackgroundColor=none;fontColor=#FFFFFF;fillColor=none;" vertex="1" parent="1">
          <mxGeometry x="640" y="950" width="230" height="200" as="geometry" />
        </mxCell>
        <mxCell id="KNgxAIFZUdSB5Y39HR3K-94" value="" style="edgeStyle=orthogonalEdgeStyle;rounded=0;orthogonalLoop=1;jettySize=auto;html=1;strokeColor=#FFFFFF;labelBackgroundColor=none;fontColor=#FFFFFF;" edge="1" parent="1" source="KNgxAIFZUdSB5Y39HR3K-20" target="KNgxAIFZUdSB5Y39HR3K-93">
          <mxGeometry relative="1" as="geometry" />
        </mxCell>
        <mxCell id="KNgxAIFZUdSB5Y39HR3K-20" value="PENANGGUNG JAWAB MUTU" style="swimlane;whiteSpace=wrap;html=1;startSize=80;fontSize=21;strokeColor=#FFFFFF;labelBackgroundColor=none;fontColor=#FFFFFF;fillColor=none;" vertex="1" parent="1">
          <mxGeometry x="920" y="950" width="230" height="160" as="geometry" />
        </mxCell>
        <mxCell id="KNgxAIFZUdSB5Y39HR3K-22" value="&lt;font style=&quot;font-size: 22px;&quot;&gt;PELAYANAN PUSKESMAS&lt;/font&gt;" style="swimlane;whiteSpace=wrap;html=1;startSize=100;strokeColor=#FFFFFF;labelBackgroundColor=none;fontColor=#FFFFFF;fillColor=none;" vertex="1" parent="1">
          <mxGeometry x="-480" y="2260" width="230" height="170" as="geometry" />
        </mxCell>
        <mxCell id="KNgxAIFZUdSB5Y39HR3K-25" value="" style="edgeStyle=orthogonalEdgeStyle;rounded=0;orthogonalLoop=1;jettySize=auto;html=1;entryX=0.5;entryY=0;entryDx=0;entryDy=0;exitX=0.5;exitY=1;exitDx=0;exitDy=0;strokeColor=#FFFFFF;labelBackgroundColor=none;fontColor=#FFFFFF;" edge="1" parent="1" source="KNgxAIFZUdSB5Y39HR3K-32" target="KNgxAIFZUdSB5Y39HR3K-22">
          <mxGeometry relative="1" as="geometry">
            <mxPoint x="-140" y="1960" as="sourcePoint" />
          </mxGeometry>
        </mxCell>
        <mxCell id="KNgxAIFZUdSB5Y39HR3K-37" value="" style="edgeStyle=orthogonalEdgeStyle;rounded=0;orthogonalLoop=1;jettySize=auto;html=1;strokeColor=#FFFFFF;labelBackgroundColor=none;fontColor=#FFFFFF;" edge="1" parent="1" source="KNgxAIFZUdSB5Y39HR3K-34" target="KNgxAIFZUdSB5Y39HR3K-36">
          <mxGeometry relative="1" as="geometry" />
        </mxCell>
        <mxCell id="KNgxAIFZUdSB5Y39HR3K-34" value="PELAYANAN KESEHATAN TRADISIONAL" style="swimlane;whiteSpace=wrap;html=1;startSize=90;fontSize=21;strokeColor=#FFFFFF;labelBackgroundColor=none;fontColor=#FFFFFF;fillColor=none;" vertex="1" parent="1">
          <mxGeometry x="-200" y="1190" width="230" height="160" as="geometry" />
        </mxCell>
        <mxCell id="KNgxAIFZUdSB5Y39HR3K-39" value="" style="edgeStyle=orthogonalEdgeStyle;rounded=0;orthogonalLoop=1;jettySize=auto;html=1;strokeColor=#FFFFFF;labelBackgroundColor=none;fontColor=#FFFFFF;" edge="1" parent="1" source="KNgxAIFZUdSB5Y39HR3K-36" target="KNgxAIFZUdSB5Y39HR3K-38">
          <mxGeometry relative="1" as="geometry" />
        </mxCell>
        <mxCell id="KNgxAIFZUdSB5Y39HR3K-36" value="PELAYANAN KESEHATAN OLAHRAGA" style="swimlane;whiteSpace=wrap;html=1;startSize=90;fontSize=21;strokeColor=#FFFFFF;labelBackgroundColor=none;fontColor=#FFFFFF;fillColor=none;" vertex="1" parent="1">
          <mxGeometry x="-200" y="1430" width="230" height="160" as="geometry" />
        </mxCell>
        <mxCell id="KNgxAIFZUdSB5Y39HR3K-41" value="" style="edgeStyle=orthogonalEdgeStyle;rounded=0;orthogonalLoop=1;jettySize=auto;html=1;strokeColor=#FFFFFF;labelBackgroundColor=none;fontColor=#FFFFFF;" edge="1" parent="1" source="KNgxAIFZUdSB5Y39HR3K-38" target="KNgxAIFZUdSB5Y39HR3K-40">
          <mxGeometry relative="1" as="geometry" />
        </mxCell>
        <mxCell id="KNgxAIFZUdSB5Y39HR3K-38" value="PELAYANAN KESEHATAN KERJA" style="swimlane;whiteSpace=wrap;html=1;startSize=90;fontSize=21;strokeColor=#FFFFFF;labelBackgroundColor=none;fontColor=#FFFFFF;fillColor=none;" vertex="1" parent="1">
          <mxGeometry x="-200" y="1670" width="230" height="160" as="geometry" />
        </mxCell>
        <mxCell id="KNgxAIFZUdSB5Y39HR3K-43" value="" style="edgeStyle=orthogonalEdgeStyle;rounded=0;orthogonalLoop=1;jettySize=auto;html=1;strokeColor=#FFFFFF;labelBackgroundColor=none;fontColor=#FFFFFF;" edge="1" parent="1" source="KNgxAIFZUdSB5Y39HR3K-40" target="KNgxAIFZUdSB5Y39HR3K-42">
          <mxGeometry relative="1" as="geometry" />
        </mxCell>
        <mxCell id="KNgxAIFZUdSB5Y39HR3K-40" value="PELAYANAN KESEHATAN JIWA" style="swimlane;whiteSpace=wrap;html=1;startSize=90;fontSize=21;strokeColor=#FFFFFF;labelBackgroundColor=none;fontColor=#FFFFFF;fillColor=none;" vertex="1" parent="1">
          <mxGeometry x="-200" y="1910" width="230" height="160" as="geometry" />
        </mxCell>
        <mxCell id="KNgxAIFZUdSB5Y39HR3K-45" value="" style="edgeStyle=orthogonalEdgeStyle;rounded=0;orthogonalLoop=1;jettySize=auto;html=1;strokeColor=#FFFFFF;labelBackgroundColor=none;fontColor=#FFFFFF;" edge="1" parent="1" source="KNgxAIFZUdSB5Y39HR3K-42" target="KNgxAIFZUdSB5Y39HR3K-44">
          <mxGeometry relative="1" as="geometry" />
        </mxCell>
        <mxCell id="KNgxAIFZUdSB5Y39HR3K-42" value="PELAYANAN KESEHATAN REMAJA" style="swimlane;whiteSpace=wrap;html=1;startSize=90;fontSize=21;strokeColor=#FFFFFF;labelBackgroundColor=none;fontColor=#FFFFFF;fillColor=none;" vertex="1" parent="1">
          <mxGeometry x="-200" y="2150" width="230" height="160" as="geometry" />
        </mxCell>
        <mxCell id="KNgxAIFZUdSB5Y39HR3K-47" value="" style="edgeStyle=orthogonalEdgeStyle;rounded=0;orthogonalLoop=1;jettySize=auto;html=1;strokeColor=#FFFFFF;labelBackgroundColor=none;fontColor=#FFFFFF;" edge="1" parent="1" source="KNgxAIFZUdSB5Y39HR3K-44" target="KNgxAIFZUdSB5Y39HR3K-46">
          <mxGeometry relative="1" as="geometry" />
        </mxCell>
        <mxCell id="KNgxAIFZUdSB5Y39HR3K-44" value="PELAYANAN KESEHATAN LANSIA" style="swimlane;whiteSpace=wrap;html=1;startSize=90;fontSize=21;strokeColor=#FFFFFF;labelBackgroundColor=none;fontColor=#FFFFFF;fillColor=none;" vertex="1" parent="1">
          <mxGeometry x="-200" y="2390" width="230" height="160" as="geometry" />
        </mxCell>
        <mxCell id="KNgxAIFZUdSB5Y39HR3K-49" value="" style="edgeStyle=orthogonalEdgeStyle;rounded=0;orthogonalLoop=1;jettySize=auto;html=1;strokeColor=#FFFFFF;labelBackgroundColor=none;fontColor=#FFFFFF;" edge="1" parent="1" source="KNgxAIFZUdSB5Y39HR3K-46" target="KNgxAIFZUdSB5Y39HR3K-48">
          <mxGeometry relative="1" as="geometry" />
        </mxCell>
        <mxCell id="KNgxAIFZUdSB5Y39HR3K-46" value="PELAYANAN UKS/UKGS" style="swimlane;whiteSpace=wrap;html=1;startSize=90;fontSize=21;strokeColor=#FFFFFF;labelBackgroundColor=none;fontColor=#FFFFFF;fillColor=none;" vertex="1" parent="1">
          <mxGeometry x="-200" y="2630" width="230" height="160" as="geometry" />
        </mxCell>
        <mxCell id="KNgxAIFZUdSB5Y39HR3K-48" value="PELAYANAN UKGS" style="swimlane;whiteSpace=wrap;html=1;startSize=90;fontSize=21;strokeColor=#FFFFFF;labelBackgroundColor=none;fontColor=#FFFFFF;fillColor=none;" vertex="1" parent="1">
          <mxGeometry x="-200" y="2870" width="230" height="160" as="geometry" />
        </mxCell>
        <mxCell id="KNgxAIFZUdSB5Y39HR3K-54" value="" style="edgeStyle=orthogonalEdgeStyle;rounded=0;orthogonalLoop=1;jettySize=auto;html=1;strokeColor=#FFFFFF;labelBackgroundColor=none;fontColor=#FFFFFF;" edge="1" parent="1" source="KNgxAIFZUdSB5Y39HR3K-51" target="KNgxAIFZUdSB5Y39HR3K-53">
          <mxGeometry relative="1" as="geometry" />
        </mxCell>
        <mxCell id="KNgxAIFZUdSB5Y39HR3K-51" value="PELAYANAN PEMERIKSAAN UMUM" style="swimlane;whiteSpace=wrap;html=1;startSize=80;fontSize=21;strokeColor=#FFFFFF;labelBackgroundColor=none;fontColor=#FFFFFF;fillColor=none;" vertex="1" parent="1">
          <mxGeometry x="80" y="1230" width="230" height="150" as="geometry" />
        </mxCell>
        <mxCell id="KNgxAIFZUdSB5Y39HR3K-56" value="" style="edgeStyle=orthogonalEdgeStyle;rounded=0;orthogonalLoop=1;jettySize=auto;html=1;strokeColor=#FFFFFF;labelBackgroundColor=none;fontColor=#FFFFFF;" edge="1" parent="1" source="KNgxAIFZUdSB5Y39HR3K-53" target="KNgxAIFZUdSB5Y39HR3K-55">
          <mxGeometry relative="1" as="geometry" />
        </mxCell>
        <mxCell id="KNgxAIFZUdSB5Y39HR3K-53" value="PELAYANAN KESEHATAN GIGI" style="swimlane;whiteSpace=wrap;html=1;startSize=70;fontSize=21;strokeColor=#FFFFFF;labelBackgroundColor=none;fontColor=#FFFFFF;fillColor=none;" vertex="1" parent="1">
          <mxGeometry x="80" y="1430" width="230" height="140" as="geometry" />
        </mxCell>
        <mxCell id="KNgxAIFZUdSB5Y39HR3K-58" value="" style="edgeStyle=orthogonalEdgeStyle;rounded=0;orthogonalLoop=1;jettySize=auto;html=1;strokeColor=#FFFFFF;labelBackgroundColor=none;fontColor=#FFFFFF;" edge="1" parent="1" target="KNgxAIFZUdSB5Y39HR3K-57">
          <mxGeometry relative="1" as="geometry">
            <mxPoint x="195" y="1820" as="sourcePoint" />
          </mxGeometry>
        </mxCell>
        <mxCell id="KNgxAIFZUdSB5Y39HR3K-55" value="PELAYANAN KESEHATAN KELUARGA" style="swimlane;whiteSpace=wrap;html=1;startSize=120;fontSize=21;strokeColor=#FFFFFF;labelBackgroundColor=none;fontColor=#FFFFFF;fillColor=none;" vertex="1" parent="1">
          <mxGeometry x="80" y="1620" width="230" height="200" as="geometry" />
        </mxCell>
        <mxCell id="KNgxAIFZUdSB5Y39HR3K-60" value="" style="edgeStyle=orthogonalEdgeStyle;rounded=0;orthogonalLoop=1;jettySize=auto;html=1;strokeColor=#FFFFFF;labelBackgroundColor=none;fontColor=#FFFFFF;" edge="1" parent="1" source="KNgxAIFZUdSB5Y39HR3K-57" target="KNgxAIFZUdSB5Y39HR3K-59">
          <mxGeometry relative="1" as="geometry" />
        </mxCell>
        <mxCell id="KNgxAIFZUdSB5Y39HR3K-57" value="PELAYANAN GAWAT DARURAT" style="swimlane;whiteSpace=wrap;html=1;startSize=120;fontSize=21;strokeColor=#FFFFFF;labelBackgroundColor=none;fontColor=#FFFFFF;fillColor=none;" vertex="1" parent="1">
          <mxGeometry x="80" y="1880" width="230" height="200" as="geometry" />
        </mxCell>
        <mxCell id="KNgxAIFZUdSB5Y39HR3K-62" value="" style="edgeStyle=orthogonalEdgeStyle;rounded=0;orthogonalLoop=1;jettySize=auto;html=1;strokeColor=#FFFFFF;labelBackgroundColor=none;fontColor=#FFFFFF;" edge="1" parent="1" source="KNgxAIFZUdSB5Y39HR3K-59" target="KNgxAIFZUdSB5Y39HR3K-61">
          <mxGeometry relative="1" as="geometry" />
        </mxCell>
        <mxCell id="KNgxAIFZUdSB5Y39HR3K-59" value="PELAYANAN GIZI DAN LAKTASI" style="swimlane;whiteSpace=wrap;html=1;startSize=120;fontSize=21;strokeColor=#FFFFFF;labelBackgroundColor=none;fontColor=#FFFFFF;fillColor=none;" vertex="1" parent="1">
          <mxGeometry x="80" y="2160" width="230" height="200" as="geometry" />
        </mxCell>
        <mxCell id="KNgxAIFZUdSB5Y39HR3K-64" value="" style="edgeStyle=orthogonalEdgeStyle;rounded=0;orthogonalLoop=1;jettySize=auto;html=1;strokeColor=#FFFFFF;labelBackgroundColor=none;fontColor=#FFFFFF;" edge="1" parent="1" source="KNgxAIFZUdSB5Y39HR3K-61" target="KNgxAIFZUdSB5Y39HR3K-63">
          <mxGeometry relative="1" as="geometry" />
        </mxCell>
        <mxCell id="KNgxAIFZUdSB5Y39HR3K-61" value="PELAYANAN KEFARMASIAN" style="swimlane;whiteSpace=wrap;html=1;startSize=120;fontSize=21;strokeColor=#FFFFFF;labelBackgroundColor=none;fontColor=#FFFFFF;fillColor=none;" vertex="1" parent="1">
          <mxGeometry x="80" y="2440" width="230" height="200" as="geometry" />
        </mxCell>
        <mxCell id="KNgxAIFZUdSB5Y39HR3K-66" value="" style="edgeStyle=orthogonalEdgeStyle;rounded=0;orthogonalLoop=1;jettySize=auto;html=1;strokeColor=#FFFFFF;labelBackgroundColor=none;fontColor=#FFFFFF;" edge="1" parent="1" source="KNgxAIFZUdSB5Y39HR3K-63" target="KNgxAIFZUdSB5Y39HR3K-65">
          <mxGeometry relative="1" as="geometry" />
        </mxCell>
        <mxCell id="KNgxAIFZUdSB5Y39HR3K-63" value="PELAYANAN LABORATORIUM" style="swimlane;whiteSpace=wrap;html=1;startSize=120;fontSize=21;strokeColor=#FFFFFF;labelBackgroundColor=none;fontColor=#FFFFFF;fillColor=none;" vertex="1" parent="1">
          <mxGeometry x="80" y="2720" width="230" height="200" as="geometry" />
        </mxCell>
        <mxCell id="KNgxAIFZUdSB5Y39HR3K-68" value="" style="edgeStyle=orthogonalEdgeStyle;rounded=0;orthogonalLoop=1;jettySize=auto;html=1;strokeColor=#FFFFFF;labelBackgroundColor=none;fontColor=#FFFFFF;" edge="1" parent="1" source="KNgxAIFZUdSB5Y39HR3K-65" target="KNgxAIFZUdSB5Y39HR3K-67">
          <mxGeometry relative="1" as="geometry" />
        </mxCell>
        <mxCell id="KNgxAIFZUdSB5Y39HR3K-65" value="PELAYANAN KESEHATAN LINGKUNGAN" style="swimlane;whiteSpace=wrap;html=1;startSize=120;fontSize=21;strokeColor=#FFFFFF;labelBackgroundColor=none;fontColor=#FFFFFF;fillColor=none;" vertex="1" parent="1">
          <mxGeometry x="80" y="3000" width="230" height="200" as="geometry" />
        </mxCell>
        <mxCell id="KNgxAIFZUdSB5Y39HR3K-67" value="PELAYANAN PERSALINAN" style="swimlane;whiteSpace=wrap;html=1;startSize=120;fontSize=21;strokeColor=#FFFFFF;labelBackgroundColor=none;fontColor=#FFFFFF;fillColor=none;" vertex="1" parent="1">
          <mxGeometry x="80" y="3280" width="230" height="200" as="geometry" />
        </mxCell>
        <mxCell id="KNgxAIFZUdSB5Y39HR3K-72" value="" style="edgeStyle=orthogonalEdgeStyle;rounded=0;orthogonalLoop=1;jettySize=auto;html=1;strokeColor=#FFFFFF;labelBackgroundColor=none;fontColor=#FFFFFF;" edge="1" parent="1" source="KNgxAIFZUdSB5Y39HR3K-69" target="KNgxAIFZUdSB5Y39HR3K-71">
          <mxGeometry relative="1" as="geometry" />
        </mxCell>
        <mxCell id="KNgxAIFZUdSB5Y39HR3K-69" value="PUSKESMAS PEMBANTU" style="swimlane;whiteSpace=wrap;html=1;startSize=70;fontSize=21;strokeColor=#FFFFFF;labelBackgroundColor=none;fontColor=#FFFFFF;fillColor=none;" vertex="1" parent="1">
          <mxGeometry x="360" y="1230" width="230" height="140" as="geometry" />
        </mxCell>
        <mxCell id="KNgxAIFZUdSB5Y39HR3K-74" value="" style="edgeStyle=orthogonalEdgeStyle;rounded=0;orthogonalLoop=1;jettySize=auto;html=1;strokeColor=#FFFFFF;labelBackgroundColor=none;fontColor=#FFFFFF;" edge="1" parent="1" source="KNgxAIFZUdSB5Y39HR3K-71" target="KNgxAIFZUdSB5Y39HR3K-73">
          <mxGeometry relative="1" as="geometry" />
        </mxCell>
        <mxCell id="KNgxAIFZUdSB5Y39HR3K-71" value="POLIKLINIK KESEHATAN DESA (PKD) BIDAN DESA" style="swimlane;whiteSpace=wrap;html=1;startSize=90;fontSize=21;strokeColor=#FFFFFF;labelBackgroundColor=none;fontColor=#FFFFFF;fillColor=none;" vertex="1" parent="1">
          <mxGeometry x="360" y="1430" width="230" height="160" as="geometry" />
        </mxCell>
        <mxCell id="KNgxAIFZUdSB5Y39HR3K-76" value="" style="edgeStyle=orthogonalEdgeStyle;rounded=0;orthogonalLoop=1;jettySize=auto;html=1;strokeColor=#FFFFFF;labelBackgroundColor=none;fontColor=#FFFFFF;" edge="1" parent="1" source="KNgxAIFZUdSB5Y39HR3K-73" target="KNgxAIFZUdSB5Y39HR3K-75">
          <mxGeometry relative="1" as="geometry" />
        </mxCell>
        <mxCell id="KNgxAIFZUdSB5Y39HR3K-73" value="PRAKTEK MANDIRI BIDAN" style="swimlane;whiteSpace=wrap;html=1;startSize=90;fontSize=21;strokeColor=#FFFFFF;labelBackgroundColor=none;fontColor=#FFFFFF;fillColor=none;" vertex="1" parent="1">
          <mxGeometry x="360" y="1620" width="230" height="160" as="geometry" />
        </mxCell>
        <mxCell id="KNgxAIFZUdSB5Y39HR3K-78" value="" style="edgeStyle=orthogonalEdgeStyle;rounded=0;orthogonalLoop=1;jettySize=auto;html=1;strokeColor=#FFFFFF;labelBackgroundColor=none;fontColor=#FFFFFF;" edge="1" parent="1" source="KNgxAIFZUdSB5Y39HR3K-75" target="KNgxAIFZUdSB5Y39HR3K-77">
          <mxGeometry relative="1" as="geometry" />
        </mxCell>
        <mxCell id="KNgxAIFZUdSB5Y39HR3K-75" value="PRAKTEK MANDIRI DOKTER" style="swimlane;whiteSpace=wrap;html=1;startSize=80;fontSize=21;strokeColor=#FFFFFF;labelBackgroundColor=none;fontColor=#FFFFFF;fillColor=none;" vertex="1" parent="1">
          <mxGeometry x="360" y="1830" width="230" height="150" as="geometry" />
        </mxCell>
        <mxCell id="KNgxAIFZUdSB5Y39HR3K-80" value="" style="edgeStyle=orthogonalEdgeStyle;rounded=0;orthogonalLoop=1;jettySize=auto;html=1;strokeColor=#FFFFFF;labelBackgroundColor=none;fontColor=#FFFFFF;" edge="1" parent="1" source="KNgxAIFZUdSB5Y39HR3K-77" target="KNgxAIFZUdSB5Y39HR3K-79">
          <mxGeometry relative="1" as="geometry" />
        </mxCell>
        <mxCell id="KNgxAIFZUdSB5Y39HR3K-77" value="PRAKTEK MANDIRI DOKTER GIGI" style="swimlane;whiteSpace=wrap;html=1;startSize=80;fontSize=21;strokeColor=#FFFFFF;labelBackgroundColor=none;fontColor=#FFFFFF;fillColor=none;" vertex="1" parent="1">
          <mxGeometry x="360" y="2030" width="230" height="150" as="geometry" />
        </mxCell>
        <mxCell id="KNgxAIFZUdSB5Y39HR3K-82" value="" style="edgeStyle=orthogonalEdgeStyle;rounded=0;orthogonalLoop=1;jettySize=auto;html=1;strokeColor=#FFFFFF;labelBackgroundColor=none;fontColor=#FFFFFF;" edge="1" parent="1" source="KNgxAIFZUdSB5Y39HR3K-79" target="KNgxAIFZUdSB5Y39HR3K-81">
          <mxGeometry relative="1" as="geometry" />
        </mxCell>
        <mxCell id="KNgxAIFZUdSB5Y39HR3K-79" value="FKTP KLINIK PRATAMA" style="swimlane;whiteSpace=wrap;html=1;startSize=90;fontSize=21;strokeColor=#FFFFFF;labelBackgroundColor=none;fontColor=#FFFFFF;fillColor=none;" vertex="1" parent="1">
          <mxGeometry x="360" y="2230" width="230" height="160" as="geometry" />
        </mxCell>
        <mxCell id="KNgxAIFZUdSB5Y39HR3K-81" value="APOTEKER" style="swimlane;whiteSpace=wrap;html=1;startSize=80;fontSize=21;strokeColor=#FFFFFF;labelBackgroundColor=none;fontColor=#FFFFFF;fillColor=none;" vertex="1" parent="1">
          <mxGeometry x="360" y="2450" width="230" height="160" as="geometry" />
        </mxCell>
        <mxCell id="KNgxAIFZUdSB5Y39HR3K-86" value="" style="edgeStyle=orthogonalEdgeStyle;rounded=0;orthogonalLoop=1;jettySize=auto;html=1;strokeColor=#FFFFFF;labelBackgroundColor=none;fontColor=#FFFFFF;" edge="1" parent="1" source="KNgxAIFZUdSB5Y39HR3K-83" target="KNgxAIFZUdSB5Y39HR3K-85">
          <mxGeometry relative="1" as="geometry" />
        </mxCell>
        <mxCell id="KNgxAIFZUdSB5Y39HR3K-83" value="BARANG HABIS PAKAI" style="swimlane;whiteSpace=wrap;html=1;startSize=80;fontSize=21;strokeColor=#FFFFFF;labelBackgroundColor=none;fontColor=#FFFFFF;fillColor=none;" vertex="1" parent="1">
          <mxGeometry x="640" y="1230" width="230" height="150" as="geometry" />
        </mxCell>
        <mxCell id="KNgxAIFZUdSB5Y39HR3K-88" value="" style="edgeStyle=orthogonalEdgeStyle;rounded=0;orthogonalLoop=1;jettySize=auto;html=1;strokeColor=#FFFFFF;labelBackgroundColor=none;fontColor=#FFFFFF;" edge="1" parent="1" source="KNgxAIFZUdSB5Y39HR3K-85" target="KNgxAIFZUdSB5Y39HR3K-87">
          <mxGeometry relative="1" as="geometry" />
        </mxCell>
        <mxCell id="KNgxAIFZUdSB5Y39HR3K-85" value="PERALATAN TIDAK HABIS PAKAI" style="swimlane;whiteSpace=wrap;html=1;startSize=110;fontSize=21;strokeColor=#FFFFFF;labelBackgroundColor=none;fontColor=#FFFFFF;fillColor=none;" vertex="1" parent="1">
          <mxGeometry x="640" y="1440" width="230" height="170" as="geometry" />
        </mxCell>
        <mxCell id="KNgxAIFZUdSB5Y39HR3K-90" value="" style="edgeStyle=orthogonalEdgeStyle;rounded=0;orthogonalLoop=1;jettySize=auto;html=1;strokeColor=#FFFFFF;labelBackgroundColor=none;fontColor=#FFFFFF;" edge="1" parent="1" source="KNgxAIFZUdSB5Y39HR3K-87" target="KNgxAIFZUdSB5Y39HR3K-89">
          <mxGeometry relative="1" as="geometry" />
        </mxCell>
        <mxCell id="KNgxAIFZUdSB5Y39HR3K-87" value="BANGUNAN" style="swimlane;whiteSpace=wrap;html=1;startSize=70;fontSize=21;strokeColor=#FFFFFF;labelBackgroundColor=none;fontColor=#FFFFFF;fillColor=none;" vertex="1" parent="1">
          <mxGeometry x="640" y="1670" width="230" height="140" as="geometry" />
        </mxCell>
        <mxCell id="KNgxAIFZUdSB5Y39HR3K-92" value="" style="edgeStyle=orthogonalEdgeStyle;rounded=0;orthogonalLoop=1;jettySize=auto;html=1;strokeColor=#FFFFFF;labelBackgroundColor=none;fontColor=#FFFFFF;" edge="1" parent="1" source="KNgxAIFZUdSB5Y39HR3K-89" target="KNgxAIFZUdSB5Y39HR3K-91">
          <mxGeometry relative="1" as="geometry" />
        </mxCell>
        <mxCell id="KNgxAIFZUdSB5Y39HR3K-89" value="AIR DAN LISTRIK" style="swimlane;whiteSpace=wrap;html=1;startSize=80;fontSize=21;strokeColor=#FFFFFF;labelBackgroundColor=none;fontColor=#FFFFFF;fillColor=none;" vertex="1" parent="1">
          <mxGeometry x="640" y="1870" width="230" height="140" as="geometry" />
        </mxCell>
        <mxCell id="KNgxAIFZUdSB5Y39HR3K-91" value="BENDAHARA BARANG" style="swimlane;whiteSpace=wrap;html=1;startSize=80;fontSize=21;strokeColor=#FFFFFF;labelBackgroundColor=none;fontColor=#FFFFFF;fillColor=none;" vertex="1" parent="1">
          <mxGeometry x="640" y="2080" width="230" height="160" as="geometry" />
        </mxCell>
        <mxCell id="KNgxAIFZUdSB5Y39HR3K-96" value="" style="edgeStyle=orthogonalEdgeStyle;rounded=0;orthogonalLoop=1;jettySize=auto;html=1;strokeColor=#FFFFFF;labelBackgroundColor=none;fontColor=#FFFFFF;" edge="1" parent="1" source="KNgxAIFZUdSB5Y39HR3K-93" target="KNgxAIFZUdSB5Y39HR3K-95">
          <mxGeometry relative="1" as="geometry" />
        </mxCell>
        <mxCell id="KNgxAIFZUdSB5Y39HR3K-93" value="PPI" style="swimlane;whiteSpace=wrap;html=1;startSize=60;fontSize=21;strokeColor=#FFFFFF;labelBackgroundColor=none;fontColor=#FFFFFF;fillColor=none;" vertex="1" parent="1">
          <mxGeometry x="920" y="1190" width="230" height="120" as="geometry" />
        </mxCell>
        <mxCell id="KNgxAIFZUdSB5Y39HR3K-98" value="" style="edgeStyle=orthogonalEdgeStyle;rounded=0;orthogonalLoop=1;jettySize=auto;html=1;strokeColor=#FFFFFF;labelBackgroundColor=none;fontColor=#FFFFFF;" edge="1" parent="1" source="KNgxAIFZUdSB5Y39HR3K-95" target="KNgxAIFZUdSB5Y39HR3K-97">
          <mxGeometry relative="1" as="geometry" />
        </mxCell>
        <mxCell id="KNgxAIFZUdSB5Y39HR3K-95" value="PMKP" style="swimlane;whiteSpace=wrap;html=1;startSize=70;fontSize=21;strokeColor=#FFFFFF;labelBackgroundColor=none;fontColor=#FFFFFF;fillColor=none;" vertex="1" parent="1">
          <mxGeometry x="920" y="1360" width="230" height="120" as="geometry" />
        </mxCell>
        <mxCell id="KNgxAIFZUdSB5Y39HR3K-97" value="AUDIT INTERNAL" style="swimlane;whiteSpace=wrap;html=1;startSize=80;fontSize=21;strokeColor=#FFFFFF;labelBackgroundColor=none;fontColor=#FFFFFF;fillColor=none;" vertex="1" parent="1">
          <mxGeometry x="920" y="1530" width="230" height="140" as="geometry" />
        </mxCell>
      </root>
    </mxGraphModel>
  </diagram>
</mxfile>
